<svg version="1.1" id="Layer_1" xmlns:x="ns_extend;" xmlns:i="ns_ai;" xmlns:graph="ns_graphs;" xmlns="http://www.w3.org/2000/svg" xmlns:xlink="http://www.w3.org/1999/xlink" x="0px" y="0px" viewBox="0 0 126 56.1" style="enable-background:new 0 0 126 56.1;" xml:space="preserve">
 <style type="text/css">
  .st0{fill:#001B15;}
 </style>
 <metadata>
  <sfw xmlns="ns_sfw;">
   <slices>
   </slices>
   <sliceSourceBounds bottomLeftOrigin="true" height="56.1" width="126" x="134" y="-71.3">
   </sliceSourceBounds>
  </sfw>
 </metadata>
 <g>
  <path class="st0" d="M32.1,49.8h-3.3L24.5,44L20,49.8h-3.2l5.9-7.8l0,0l-5.9-7.8h3.3l4.3,5.8l4.4-5.8H32L26.2,42l0,0L32.1,49.8z
		 M15.2,49.8v-2.6H3v-7.3h10.6v-2.5H3v-6.9h11.8v-2.6H0v21.9L15.2,49.8L15.2,49.8z M39.4,47.8c-2.9,0-4.5-2.2-4.5-5.8
		c0-3.7,1.6-5.9,4.5-5.9c2.4,0,3.8,1.2,4.1,3.7l2.9-0.3c-0.5-3.7-3-5.8-7-5.8c-2.3,0-4.1,0.8-5.4,2.3c-1.4,1.5-2,3.5-2,6
		s0.7,4.5,2,5.9c1.3,1.5,3.2,2.2,5.5,2.2c3.8,0,6.5-2.3,6.9-5.8L43.7,44C43.2,46.5,41.7,47.8,39.4,47.8z M61.7,39.7
		c0-3.6-2.2-5.9-5.9-5.9c-2.1,0-3.8,0.8-4.9,2.3V28h-2.8v21.9h2.8v-8.6c0-3.3,1.5-5,4.2-5c2.4,0,3.7,1.4,3.7,4v9.6h2.8L61.7,39.7
		L61.7,39.7z M77.8,47.5c-0.9,0-1.2-0.3-1.2-1.2v-7c0-3.3-2.3-5.5-6.1-5.5c-3.6,0-6.1,2-6.6,4.8l2.7,0.3c0.5-2,1.7-2.9,3.9-2.9
		c2.2,0,3.4,1.2,3.4,2.9c0,0.7-0.3,1-1,1.1l-4.6,0.8c-3.1,0.5-4.8,2.2-4.8,4.8c0,2.7,2.2,4.6,5.5,4.6c2.1,0,3.9-0.9,5-2.6
		c0.2,1.4,1.4,2.2,3,2.2h1.2v-2.3C78.2,47.5,77.8,47.5,77.8,47.5z M73.9,42.9c0,3-1.9,5.1-4.6,5.1c-1.9,0-3-0.9-3-2.5
		c0-1.4,0.9-2.3,2.6-2.6L74,42l0,0L73.9,42.9L73.9,42.9z M93.5,39.7c0-3.6-2.2-5.9-5.9-5.9c-2.1,0-3.9,0.8-4.9,2.3v-2H80v15.6h2.8
		v-8.6c0-3.3,1.5-5,4.2-5c2.4,0,3.7,1.4,3.7,4v9.6h2.8V39.7z M107,34.2v1.9c-1.1-1.5-2.8-2.3-4.9-2.3s-3.7,0.7-5,2.1
		c-1.2,1.4-1.9,3.2-1.9,5.5s0.6,4.1,1.8,5.5c1.2,1.3,2.9,2,5,2c2,0,3.7-0.8,4.8-2.4V49c0,3.1-1.5,4.7-4.2,4.7c-2.5,0-3.9-1-4.3-3.2
		l-2.8,0.3c0.3,3.3,2.9,5.3,7.1,5.3c4.5,0,7-2.6,7-6.9v-15H107z M102.6,46.5c-2.8,0-4.5-1.9-4.5-5.2s1.6-5.2,4.5-5.2
		c1.3,0,2.3,0.5,3.1,1.5c0.8,1,1.2,2.2,1.2,3.7C107,44.5,105.3,46.5,102.6,46.5z M126,41.3c0-4.6-2.6-7.5-6.9-7.5
		c-2.3,0-4.2,0.8-5.5,2.3c-1.4,1.5-2.1,3.5-2.1,5.9c0,5.3,2.7,8.2,7.6,8.2c3.4,0,6-1.9,6.6-4.9l-2.6-0.5c-0.5,2.1-1.8,3.2-4,3.2
		c-3,0-4.6-1.8-4.8-5.3H126V41.3z M114.4,40.6c0.3-3,2-4.6,4.6-4.6s3.9,1.5,4.1,4.6H114.4z M3,21.9V0H0v21.9H3z M19.6,11.8
		c0-3.6-2.2-5.9-5.9-5.9c-2.1,0-3.9,0.8-4.9,2.3v-2H6.1v15.6h2.8v-8.6c0-3.3,1.5-5,4.2-5c2.4,0,3.7,1.4,3.7,4v9.6h2.8
		C19.6,21.8,19.6,11.8,19.6,11.8z M33.5,0v8.4c-1.2-1.7-2.9-2.5-5.1-2.5c-2.1,0-3.8,0.8-5.1,2.3s-1.9,3.5-1.9,6
		c0,2.4,0.6,4.4,1.9,5.9s3,2.2,5.1,2.2c2.2,0,3.9-0.9,5.2-2.7v2.3h2.7V0H33.5z M28.8,19.9c-2.8,0-4.6-2.3-4.6-5.8s1.8-5.8,4.6-5.8
		c2.9,0,4.8,2.3,4.8,5.8S31.7,19.9,28.8,19.9z M52.6,13.4c0-4.6-2.6-7.5-6.9-7.5c-2.3,0-4.2,0.8-5.5,2.3c-1.4,1.5-2.1,3.5-2.1,5.9
		c0,5.3,2.7,8.2,7.6,8.2c3.4,0,6-1.9,6.6-4.9l-2.6-0.5C49.3,19,48,20,45.7,20c-3,0-4.6-1.8-4.8-5.3h11.7
		C52.6,14.7,52.6,13.4,52.6,13.4z M41,12.7c0.3-3,2-4.6,4.6-4.6s3.9,1.5,4.1,4.6C49.7,12.7,41,12.7,41,12.7z M61.9,14.1l5.8-7.8
		h-3.2l-4.4,5.8l-4.3-5.8h-3.3l5.8,7.8l-5.9,7.8h3.2L60,16l4.3,5.9h3.3L61.9,14.1z M60.2,0v2.8h10.9v11.3h2.8V0H60.2z">
  </path>
 </g>
</svg>