<svg version="1.1" id="Layer_1" xmlns:x="ns_extend;" xmlns:i="ns_ai;" xmlns:graph="ns_graphs;" xmlns="http://www.w3.org/2000/svg" xmlns:xlink="http://www.w3.org/1999/xlink" x="0px" y="0px" viewBox="0 0 534.4 66" style="enable-background:new 0 0 534.4 66;" xml:space="preserve">
 <style type="text/css">
  .st0{fill:#0099FA;}
	.st1{fill:#231F20;}
 </style>
 <metadata>
  <sfw xmlns="ns_sfw;">
   <slices>
   </slices>
   <sliceSourceBounds bottomLeftOrigin="true" height="66" width="534.4" x="-165.7" y="-20">
   </sliceSourceBounds>
  </sfw>
 </metadata>
 <g>
  <g>
   <g>
    <path d="M98.9,58.3c-8,0-12-4.6-12-12.2V25.9h-7.3V18h7.3V7.9l9.6-2.4V18h10v7.9h-10v19.4c0,3.1,1.4,4.4,4.4,4.4
				c2,0,3.6-0.1,6.2-0.4v8C104.4,57.9,101.7,58.3,98.9,58.3">
    </path>
    <path d="M135.7,57.8V33.2c0-4.6-1.5-7.4-6.6-7.4c-5.7,0-8.2,6.1-8.2,11v21h-9.6V2.5h9.6v19.7c2.3-3.4,6.7-5.2,10.9-5.2
				c8.5,0,13.5,6,13.5,14.2v26.6H135.7z">
    </path>
    <path d="M186.3,40.9h-26.6c-0.1,3.1,1,6,2.9,7.8c1.4,1.3,3.3,2.5,5.9,2.5c2.8,0,4.4-0.5,5.8-1.9c0.8-0.8,1.5-1.9,1.9-3.4h9.2
				c-0.2,2.4-1.8,5.5-3.4,7.4c-3.4,4-8.3,5.6-13.4,5.6c-5.4,0-9.4-1.9-12.6-4.9c-4-3.8-6.1-9.4-6.1-15.9c0-6.4,1.9-12,5.7-15.9
				c3-3.1,7.3-5,12.7-5c5.9,0,11.3,2.4,14.5,7.3c2.9,4.4,3.6,8.9,3.4,13.9C186.4,38.2,186.3,40,186.3,40.9 M174.4,27
				c-1.3-1.4-3.3-2.3-6.1-2.3c-2.9,0-5.3,1.2-6.7,3.1c-1.4,1.8-2,3.6-2.1,6.2h17.2C176.8,30.9,175.9,28.6,174.4,27">
    </path>
   </g>
   <polygon points="206.5,12.7 206.5,57.8 196.6,57.8 196.6,12.7 180.5,12.7 180.5,3.5 222.5,3.5 222.5,12.7 		">
   </polygon>
   <g>
    <path d="M238.9,26.5c-6.7,0-10.3,4.8-10.3,11.3v20.1H219V18h8.1l0.8,6c1.8-4.6,6.6-6.5,11.3-6.5c1,0,2,0.1,3,0.2v9.2
				C241.1,26.6,240,26.5,238.9,26.5">
    </path>
    <path d="M274.6,58.4c-4.1,0-6.4-2.6-6.7-5.6c-1.8,3.2-6.4,6-12.1,6c-9.5,0-14.4-6-14.4-12.5c0-7.6,5.9-11.9,13.5-12.5l11.7-0.8
				v-2.4c0-3.8-1.3-6.3-6.7-6.3c-4.4,0-7,2-7.3,5.7h-9.3c0.5-9,7.7-12.9,16.5-12.9c6.8,0,12.6,2.1,14.9,8.1c1,2.5,1.2,5.4,1.2,8
				v14.8c0,1.8,0.6,2.5,2.2,2.5c0.6,0,1.2-0.2,1.2-0.2v7C277.7,58,276.9,58.4,274.6,58.4 M266.5,40.1l-10.1,0.8
				c-2.9,0.2-5.7,2-5.7,5.2c0,3.1,2.7,5,5.7,5c6,0,10.2-3.2,10.2-9.1V40.1z">
    </path>
    <path d="M309.6,57.8l-0.6-4.4c-2.4,3.7-6.8,5.3-11.2,5.3c-4,0-7.3-1.4-9.7-3.4c-4.7-3.9-7-9.9-7-17.4c0-7.8,2.4-13.9,7.1-17.8
				c2.4-2,5.7-3.2,9.7-3.2c5.1,0,8.7,1.7,10.4,3.7V2.5h9.6v55.3H309.6z M299.8,25c-3,0-5.1,1.4-6.4,3.1c-2,2.6-2.5,6.2-2.5,9.7
				c0,3.4,0.5,7.1,2.5,9.7c1.4,1.8,3.4,3.1,6.4,3.1c7.5,0,9-7.1,9-12.9C308.8,32.1,307.3,25,299.8,25">
    </path>
    <path d="M359.6,40.9H333c-0.1,3.1,1,6,2.9,7.8c1.4,1.3,3.3,2.5,5.9,2.5c2.8,0,4.4-0.5,5.8-1.9c0.8-0.8,1.5-1.9,1.9-3.4h9.2
				c-0.2,2.4-1.8,5.5-3.4,7.4c-3.4,4-8.3,5.6-13.4,5.6c-5.4,0-9.4-1.9-12.6-4.9c-4-3.8-6.1-9.4-6.1-15.9c0-6.4,1.9-12,5.7-15.9
				c3-3.1,7.3-5,12.7-5c5.9,0,11.3,2.4,14.5,7.3c2.9,4.4,3.6,8.9,3.4,13.9C359.7,38.2,359.6,40,359.6,40.9 M347.7,27
				c-1.3-1.4-3.3-2.3-6.1-2.3c-2.9,0-5.3,1.2-6.7,3.1c-1.4,1.8-2,3.6-2.1,6.2h17.2C350,30.9,349.2,28.6,347.7,27">
    </path>
    <path d="M401.5,52c-3.6,3.8-9,5.8-15.2,5.8h-21.1V3.5h21.1c6.2,0,11.6,2.1,15.2,5.8c5.6,5.7,6.4,13.8,6.4,21.3
				C407.9,38.1,407.1,46.2,401.5,52 M394,15.5c-1.8-1.8-4.5-3.1-7.7-3.1h-11.2v36.5h11.2c3.1,0,5.8-1.2,7.7-3.1
				c3.8-3.8,3.9-10.3,3.9-15.2C397.9,25.6,397.8,19.3,394,15.5">
    </path>
    <path d="M446.9,40.9h-26.6c-0.1,3.1,1,6,2.9,7.8c1.4,1.3,3.3,2.5,5.9,2.5c2.8,0,4.4-0.5,5.8-1.9c0.8-0.8,1.5-1.9,1.9-3.4h9.2
				c-0.2,2.4-1.8,5.5-3.4,7.4c-3.4,4-8.3,5.6-13.4,5.6c-5.4,0-9.4-1.9-12.6-4.9c-4-3.8-6.1-9.4-6.1-15.9c0-6.4,1.9-12,5.7-15.9
				c3-3.1,7.3-5,12.7-5c5.9,0,11.3,2.4,14.5,7.3c2.9,4.4,3.6,8.9,3.4,13.9C447,38.2,446.9,40,446.9,40.9 M435,27
				c-1.3-1.4-3.3-2.3-6-2.3c-2.9,0-5.3,1.2-6.7,3.1c-1.4,1.8-2,3.6-2.1,6.2h17.2C437.4,30.9,436.5,28.6,435,27">
    </path>
   </g>
   <polygon points="488.2,2.5 488.2,57.8 497.7,57.8 497.7,47.3 504.1,40.4 515.3,57.8 526.4,57.8 510.6,33.4 524.8,18 512.8,18 
			497.7,34.1 497.7,2.5 		">
   </polygon>
   <g>
    <path d="M472.2,34.2c-3.9-0.6-4.9-0.7-8.5-1.2c-2.1-0.3-4.6-1.1-4.6-4c0-2.1,1.4-3.5,3.1-4.2c1.5-0.6,2.8-0.6,4.1-0.6
				c2,0,4.1,0.7,5.2,1.8c0.9,1,1.6,2.2,1.6,3.7h9.1c0-2.9-1.4-5.9-3.5-8.2c-2.9-3.1-7.7-4.7-12.5-4.7c-5,0-9.2,1.5-12.1,4
				c-2.4,2.1-4.1,4.9-4.1,9c0,5,3.7,9.5,9.1,10.6c3.5,0.8,7.5,1,11,1.5c2.5,0.4,4,1.9,4,4.2c0,4.4-4.9,5.1-8.1,5.1
				c-2.8,0-4.5-0.5-6-1.8c-1-0.8-1.8-2.3-2-3.8h-9c0.3,3.4,2,6.3,4.2,8.4c3.3,3.1,7.8,4.6,12.9,4.6c5.4,0,10.4-1.4,13.6-4.6
				c2.1-2.1,3.4-4.9,3.4-8.7C483.1,39.2,478.5,35.2,472.2,34.2">
    </path>
   </g>
   <polygon class="st0" points="15.7,0 15.7,10.3 26.2,10.3 26.2,37.1 36.3,37.1 36.3,10.1 36.3,0 		">
   </polygon>
   <g>
    <path class="st0" d="M10.1,34.7c0-8,4.4-15,11-18.6v0h-15C2.3,21.4,0,27.8,0,34.7c0,13.8,8.9,25.5,21.3,29.7v-11
				C14.7,49.8,10.1,42.8,10.1,34.7">
    </path>
    <path class="st0" d="M41.4,5.2v11c6.6,3.6,11,10.6,11,18.6c0,11.7-9.5,21.1-21.1,21.1c-1.7,0-3.4-0.2-5.1-0.6v10.3
				c1.6,0.3,3.3,0.4,5.1,0.4c17.3,0,31.3-14,31.3-31.3C62.5,21,53.7,9.4,41.4,5.2">
    </path>
   </g>
  </g>
  <g>
   <path class="st1" d="M530.7,20.4c-2.1,0-3.7-1.7-3.7-3.7s1.6-3.8,3.7-3.8s3.7,1.7,3.7,3.7C534.4,18.7,532.9,20.4,530.7,20.4z
			 M530.7,13.5c-1.8,0-3,1.3-3,3.1c0,1.8,1.2,3.1,3,3.1c1.8,0,3-1.3,3-3.1C533.7,14.9,532.6,13.5,530.7,13.5z M531.6,18.5l-0.7-1.4
			h-0.8v1.4h-0.7v-3.9h1.4c0.7,0,1.4,0.4,1.4,1.2c0,0.5-0.2,0.9-0.7,1.1l0.7,1.6L531.6,18.5L531.6,18.5z M530.9,15.3h-0.8v1.2h0.8
			c0.4,0,0.7-0.2,0.7-0.6C531.6,15.5,531.3,15.3,530.9,15.3z">
   </path>
  </g>
 </g>
</svg>